<svg width="144" height="48" viewBox="0 0 144 48" fill="none" xmlns="http://www.w3.org/2000/svg">
<rect x="0.5" width="143.5" height="48" rx="2" fill="#5CB85F"/>
<g clip-path="url(#clip0_44910_5407)">
<path d="M52 18H46.75C46.3522 18 45.9706 18.158 45.6893 18.4393C45.408 18.7206 45.25 19.1022 45.25 19.5V30C45.25 30.3978 45.408 30.7794 45.6893 31.0607C45.9706 31.342 46.3522 31.5 46.75 31.5H57.25C57.6478 31.5 58.0294 31.342 58.3107 31.0607C58.592 30.7794 58.75 30.3978 58.75 30V24.75" stroke="white" stroke-width="2" stroke-linecap="round" stroke-linejoin="round"/>
<path d="M57.625 16.875C57.9234 16.5766 58.328 16.409 58.75 16.409C59.172 16.409 59.5766 16.5766 59.875 16.875C60.1734 17.1734 60.341 17.578 60.341 18C60.341 18.422 60.1734 18.8266 59.875 19.125L52.75 26.25L49.75 27L50.5 24L57.625 16.875Z" stroke="white" stroke-width="2" stroke-linecap="round" stroke-linejoin="round"/>
</g>
<path d="M74.828 29V19.228H81.478V21.118H76.956V23.12H80.834V24.996H76.956V27.11H81.478V29H74.828ZM87.5912 27.768H87.5212C87.4652 27.964 87.3765 28.1507 87.2552 28.328C87.1339 28.496 86.9845 28.6453 86.8072 28.776C86.6392 28.8973 86.4432 28.9907 86.2192 29.056C86.0045 29.1307 85.7805 29.168 85.5472 29.168C84.6139 29.168 83.9092 28.8413 83.4332 28.188C82.9572 27.5253 82.7192 26.5687 82.7192 25.318C82.7192 24.0673 82.9572 23.1153 83.4332 22.462C83.9092 21.8087 84.6139 21.482 85.5472 21.482C86.0232 21.482 86.4432 21.6127 86.8072 21.874C87.1805 22.1353 87.4185 22.4713 87.5212 22.882H87.5912V18.64H89.6632V29H87.5912V27.768ZM86.2332 27.488C86.6252 27.488 86.9472 27.3947 87.1992 27.208C87.4605 27.012 87.5912 26.746 87.5912 26.41V24.24C87.5912 23.904 87.4605 23.6427 87.1992 23.456C86.9472 23.26 86.6252 23.162 86.2332 23.162C85.8412 23.162 85.5145 23.302 85.2532 23.582C85.0012 23.8527 84.8752 24.2213 84.8752 24.688V25.962C84.8752 26.4287 85.0012 26.802 85.2532 27.082C85.5145 27.3527 85.8412 27.488 86.2332 27.488ZM92.6368 20.866C92.2168 20.866 91.9088 20.7727 91.7128 20.586C91.5261 20.39 91.4328 20.1427 91.4328 19.844V19.536C91.4328 19.2373 91.5261 18.9947 91.7128 18.808C91.9088 18.612 92.2168 18.514 92.6368 18.514C93.0568 18.514 93.3601 18.612 93.5468 18.808C93.7428 18.9947 93.8408 19.2373 93.8408 19.536V19.844C93.8408 20.1427 93.7428 20.39 93.5468 20.586C93.3601 20.7727 93.0568 20.866 92.6368 20.866ZM91.6008 21.65H93.6728V29H91.6008V21.65ZM98.1826 29C97.464 29 96.918 28.818 96.5446 28.454C96.1806 28.09 95.9986 27.558 95.9986 26.858V23.26H94.9626V21.65H95.4806C95.7606 21.65 95.952 21.5847 96.0546 21.454C96.1573 21.314 96.2086 21.118 96.2086 20.866V19.662H98.0706V21.65H99.5266V23.26H98.0706V27.39H99.4146V29H98.1826Z" fill="white"/>
<defs>
<clipPath id="clip0_44910_5407">
<rect width="18" height="18" fill="white" transform="translate(43.75 15)"/>
</clipPath>
</defs>
</svg>
