<svg width="77" height="36" viewBox="0 0 77 36" fill="none" xmlns="http://www.w3.org/2000/svg">
<rect x="0.5" y="0.5" width="76" height="35" rx="1.5" fill="#CFD4ED"/>
<path d="M20.386 16.588H20.344L19.63 18.016L17.726 21.474L15.864 18.03L15.122 16.49H15.08V23H13.078V13.228H15.332L17.726 17.806H17.754L20.12 13.228H22.388V23H20.386V16.588ZM27.5027 23.168C26.9427 23.168 26.4434 23.0793 26.0047 22.902C25.566 22.7153 25.1927 22.4587 24.8847 22.132C24.586 21.796 24.3574 21.39 24.1987 20.914C24.0494 20.438 23.9747 19.906 23.9747 19.318C23.9747 18.7393 24.0494 18.2167 24.1987 17.75C24.348 17.274 24.5674 16.868 24.8567 16.532C25.1554 16.196 25.5194 15.9393 25.9487 15.762C26.378 15.5753 26.868 15.482 27.4187 15.482C28.0254 15.482 28.5434 15.5847 28.9727 15.79C29.4114 15.9953 29.766 16.2707 30.0367 16.616C30.3167 16.9613 30.5174 17.3627 30.6387 17.82C30.7694 18.268 30.8347 18.7393 30.8347 19.234V19.85H26.1167V19.962C26.1167 20.4473 26.2474 20.8347 26.5087 21.124C26.77 21.404 27.1807 21.544 27.7407 21.544C28.17 21.544 28.52 21.46 28.7907 21.292C29.0614 21.1147 29.3134 20.9047 29.5467 20.662L30.5827 21.95C30.256 22.3327 29.8267 22.6313 29.2947 22.846C28.772 23.0607 28.1747 23.168 27.5027 23.168ZM27.4607 17.008C27.0407 17.008 26.7094 17.148 26.4667 17.428C26.2334 17.6987 26.1167 18.0627 26.1167 18.52V18.632H28.6927V18.506C28.6927 18.058 28.59 17.6987 28.3847 17.428C28.1887 17.148 27.8807 17.008 27.4607 17.008ZM36.806 21.768H36.736C36.68 21.964 36.5914 22.1507 36.47 22.328C36.3487 22.496 36.1994 22.6453 36.022 22.776C35.854 22.8973 35.658 22.9907 35.434 23.056C35.2194 23.1307 34.9954 23.168 34.762 23.168C33.8287 23.168 33.124 22.8413 32.648 22.188C32.172 21.5253 31.934 20.5687 31.934 19.318C31.934 18.0673 32.172 17.1153 32.648 16.462C33.124 15.8087 33.8287 15.482 34.762 15.482C35.238 15.482 35.658 15.6127 36.022 15.874C36.3954 16.1353 36.6334 16.4713 36.736 16.882H36.806V12.64H38.878V23H36.806V21.768ZM35.448 21.488C35.84 21.488 36.162 21.3947 36.414 21.208C36.6754 21.012 36.806 20.746 36.806 20.41V18.24C36.806 17.904 36.6754 17.6427 36.414 17.456C36.162 17.26 35.84 17.162 35.448 17.162C35.056 17.162 34.7294 17.302 34.468 17.582C34.216 17.8527 34.09 18.2213 34.09 18.688V19.962C34.09 20.4287 34.216 20.802 34.468 21.082C34.7294 21.3527 35.056 21.488 35.448 21.488ZM41.8516 14.866C41.4316 14.866 41.1236 14.7727 40.9276 14.586C40.7409 14.39 40.6476 14.1427 40.6476 13.844V13.536C40.6476 13.2373 40.7409 12.9947 40.9276 12.808C41.1236 12.612 41.4316 12.514 41.8516 12.514C42.2716 12.514 42.5749 12.612 42.7616 12.808C42.9576 12.9947 43.0556 13.2373 43.0556 13.536V13.844C43.0556 14.1427 42.9576 14.39 42.7616 14.586C42.5749 14.7727 42.2716 14.866 41.8516 14.866ZM40.8156 15.65H42.8876V23H40.8156V15.65ZM49.1615 21.768H49.0915C49.0261 21.9547 48.9375 22.132 48.8255 22.3C48.7228 22.468 48.5875 22.6173 48.4195 22.748C48.2515 22.8787 48.0508 22.9813 47.8175 23.056C47.5935 23.1307 47.3321 23.168 47.0335 23.168C46.2775 23.168 45.7035 22.9207 45.3115 22.426C44.9288 21.922 44.7375 21.2033 44.7375 20.27V15.65H46.8095V20.088C46.8095 20.536 46.8888 20.8813 47.0475 21.124C47.2061 21.3667 47.4768 21.488 47.8595 21.488C48.0181 21.488 48.1768 21.4647 48.3355 21.418C48.4941 21.3713 48.6341 21.306 48.7555 21.222C48.8768 21.1287 48.9748 21.0167 49.0495 20.886C49.1241 20.7553 49.1615 20.6013 49.1615 20.424V15.65H51.2335V23H49.1615V21.768ZM53.1613 23V15.65H55.2333V16.896H55.3173C55.448 16.504 55.672 16.1727 55.9893 15.902C56.3066 15.622 56.7406 15.482 57.2913 15.482C57.7953 15.482 58.2246 15.608 58.5793 15.86C58.934 16.112 59.1906 16.4807 59.3493 16.966H59.3913C59.4566 16.7607 59.5546 16.5693 59.6853 16.392C59.8253 16.2053 59.9933 16.0467 60.1893 15.916C60.3853 15.7853 60.6046 15.6827 60.8473 15.608C61.09 15.524 61.3513 15.482 61.6313 15.482C62.3406 15.482 62.882 15.734 63.2553 16.238C63.638 16.742 63.8293 17.4607 63.8293 18.394V23H61.7573V18.562C61.7573 17.6287 61.4213 17.162 60.7493 17.162C60.4413 17.162 60.1613 17.2507 59.9093 17.428C59.6573 17.6053 59.5313 17.876 59.5313 18.24V23H57.4593V18.562C57.4593 17.6287 57.1233 17.162 56.4513 17.162C56.302 17.162 56.1526 17.1853 56.0033 17.232C55.8633 17.2693 55.7326 17.3347 55.6113 17.428C55.4993 17.5213 55.406 17.638 55.3313 17.778C55.266 17.9087 55.2333 18.0627 55.2333 18.24V23H53.1613Z" fill="#0D28A6"/>
<rect x="0.5" y="0.5" width="76" height="35" rx="1.5" stroke="#0D28A6"/>
</svg>
