<svg width="88" height="36" viewBox="0 0 88 36" fill="none" xmlns="http://www.w3.org/2000/svg">
<rect x="1" y="0.5" width="86" height="35" rx="1.5" fill="white"/>
<path d="M30.652 15.118V23H28.524V15.118H25.878V13.228H33.298V15.118H30.652ZM35.6778 14.866C35.2578 14.866 34.9498 14.7727 34.7538 14.586C34.5671 14.39 34.4738 14.1427 34.4738 13.844V13.536C34.4738 13.2373 34.5671 12.9947 34.7538 12.808C34.9498 12.612 35.2578 12.514 35.6778 12.514C36.0978 12.514 36.4011 12.612 36.5878 12.808C36.7838 12.9947 36.8818 13.2373 36.8818 13.536V13.844C36.8818 14.1427 36.7838 14.39 36.5878 14.586C36.4011 14.7727 36.0978 14.866 35.6778 14.866ZM34.6418 15.65H36.7138V23H34.6418V15.65ZM43.1556 21.768H43.0856C43.0296 21.964 42.941 22.1507 42.8196 22.328C42.6983 22.496 42.549 22.6453 42.3716 22.776C42.2036 22.8973 42.0076 22.9907 41.7836 23.056C41.569 23.1307 41.345 23.168 41.1116 23.168C40.1783 23.168 39.4736 22.8413 38.9976 22.188C38.5216 21.5253 38.2836 20.5687 38.2836 19.318C38.2836 18.0673 38.5216 17.1153 38.9976 16.462C39.4736 15.8087 40.1783 15.482 41.1116 15.482C41.5876 15.482 42.0076 15.6127 42.3716 15.874C42.745 16.1353 42.983 16.4713 43.0856 16.882H43.1556V12.64H45.2276V23H43.1556V21.768ZM41.7976 21.488C42.1896 21.488 42.5116 21.3947 42.7636 21.208C43.025 21.012 43.1556 20.746 43.1556 20.41V18.24C43.1556 17.904 43.025 17.6427 42.7636 17.456C42.5116 17.26 42.1896 17.162 41.7976 17.162C41.4056 17.162 41.079 17.302 40.8176 17.582C40.5656 17.8527 40.4396 18.2213 40.4396 18.688V19.962C40.4396 20.4287 40.5656 20.802 40.8176 21.082C41.079 21.3527 41.4056 21.488 41.7976 21.488ZM52.5972 23C52.2239 23 51.9112 22.8833 51.6592 22.65C51.4166 22.4167 51.2626 22.104 51.1972 21.712H51.1132C51.0012 22.188 50.7539 22.552 50.3712 22.804C49.9886 23.0467 49.5172 23.168 48.9572 23.168C48.2199 23.168 47.6552 22.972 47.2632 22.58C46.8712 22.188 46.6752 21.67 46.6752 21.026C46.6752 20.2513 46.9552 19.6773 47.5152 19.304C48.0846 18.9213 48.8546 18.73 49.8252 18.73H50.9872V18.268C50.9872 17.9133 50.8939 17.6333 50.7072 17.428C50.5206 17.2133 50.2079 17.106 49.7692 17.106C49.3586 17.106 49.0319 17.1947 48.7892 17.372C48.5466 17.5493 48.3459 17.75 48.1872 17.974L46.9552 16.882C47.2539 16.4433 47.6272 16.1027 48.0752 15.86C48.5326 15.608 49.1486 15.482 49.9232 15.482C50.9686 15.482 51.7526 15.7107 52.2752 16.168C52.7979 16.6253 53.0592 17.2927 53.0592 18.17V21.39H53.7452V23H52.5972ZM49.7272 21.726C50.0726 21.726 50.3666 21.6513 50.6092 21.502C50.8612 21.3527 50.9872 21.11 50.9872 20.774V19.906H49.9792C49.1672 19.906 48.7612 20.1813 48.7612 20.732V20.942C48.7612 21.2127 48.8452 21.4133 49.0132 21.544C49.1812 21.6653 49.4192 21.726 49.7272 21.726ZM55.1359 12.64H57.2079V18.758H57.2919L58.2019 17.4L59.6719 15.65H61.9679L59.5179 18.464L62.2479 23H59.7839L58.1319 19.892L57.2079 20.928V23H55.1359V12.64Z" fill="#0D28A6"/>
<rect x="1" y="0.5" width="86" height="35" rx="1.5" stroke="#0D28A6"/>
</svg>
