<svg width="88" height="36" viewBox="0 0 88 36" fill="none" xmlns="http://www.w3.org/2000/svg">
<rect x="0.5" width="87" height="36" rx="2" fill="#0D28A6"/>
<path d="M38.972 23V19.178L35.626 13.228H38.006L40.106 17.12H40.134L42.15 13.228H44.46L41.114 19.164V23H38.972ZM50.0738 23C49.7004 23 49.3878 22.8833 49.1358 22.65C48.8931 22.4167 48.7391 22.104 48.6738 21.712H48.5898C48.4778 22.188 48.2304 22.552 47.8478 22.804C47.4651 23.0467 46.9938 23.168 46.4338 23.168C45.6964 23.168 45.1318 22.972 44.7398 22.58C44.3478 22.188 44.1518 21.67 44.1518 21.026C44.1518 20.2513 44.4318 19.6773 44.9918 19.304C45.5611 18.9213 46.3311 18.73 47.3018 18.73H48.4638V18.268C48.4638 17.9133 48.3704 17.6333 48.1838 17.428C47.9971 17.2133 47.6844 17.106 47.2458 17.106C46.8351 17.106 46.5084 17.1947 46.2658 17.372C46.0231 17.5493 45.8224 17.75 45.6638 17.974L44.4318 16.882C44.7304 16.4433 45.1038 16.1027 45.5518 15.86C46.0091 15.608 46.6251 15.482 47.3998 15.482C48.4451 15.482 49.2291 15.7107 49.7518 16.168C50.2744 16.6253 50.5358 17.2927 50.5358 18.17V21.39H51.2218V23H50.0738ZM47.2038 21.726C47.5491 21.726 47.8431 21.6513 48.0858 21.502C48.3378 21.3527 48.4638 21.11 48.4638 20.774V19.906H47.4558C46.6438 19.906 46.2378 20.1813 46.2378 20.732V20.942C46.2378 21.2127 46.3218 21.4133 46.4898 21.544C46.6578 21.6653 46.8958 21.726 47.2038 21.726Z" fill="white"/>
</svg>
