<svg width="140" height="36" viewBox="0 0 140 36" fill="none" xmlns="http://www.w3.org/2000/svg">
<rect width="140" height="36" rx="2" fill="#0D28A6"/>
<path d="M21 12.75V23.25" stroke="white" stroke-width="2" stroke-linecap="round" stroke-linejoin="round"/>
<path d="M15.75 18H26.25" stroke="white" stroke-width="2" stroke-linecap="round" stroke-linejoin="round"/>
<path d="M49.098 23L48.398 20.676H45.136L44.436 23H42.28L45.5 13.228H48.132L51.31 23H49.098ZM46.788 15.16H46.718L45.64 18.87H47.88L46.788 15.16ZM57.058 21.768H56.988C56.932 21.964 56.8433 22.1507 56.722 22.328C56.6007 22.496 56.4513 22.6453 56.274 22.776C56.106 22.8973 55.91 22.9907 55.686 23.056C55.4713 23.1307 55.2473 23.168 55.014 23.168C54.0807 23.168 53.376 22.8413 52.9 22.188C52.424 21.5253 52.186 20.5687 52.186 19.318C52.186 18.0673 52.424 17.1153 52.9 16.462C53.376 15.8087 54.0807 15.482 55.014 15.482C55.49 15.482 55.91 15.6127 56.274 15.874C56.6473 16.1353 56.8853 16.4713 56.988 16.882H57.058V12.64H59.13V23H57.058V21.768ZM55.7 21.488C56.092 21.488 56.414 21.3947 56.666 21.208C56.9273 21.012 57.058 20.746 57.058 20.41V18.24C57.058 17.904 56.9273 17.6427 56.666 17.456C56.414 17.26 56.092 17.162 55.7 17.162C55.308 17.162 54.9813 17.302 54.72 17.582C54.468 17.8527 54.342 18.2213 54.342 18.688V19.962C54.342 20.4287 54.468 20.802 54.72 21.082C54.9813 21.3527 55.308 21.488 55.7 21.488ZM65.5756 21.768H65.5056C65.4496 21.964 65.3609 22.1507 65.2396 22.328C65.1182 22.496 64.9689 22.6453 64.7916 22.776C64.6236 22.8973 64.4276 22.9907 64.2036 23.056C63.9889 23.1307 63.7649 23.168 63.5316 23.168C62.5982 23.168 61.8936 22.8413 61.4176 22.188C60.9416 21.5253 60.7036 20.5687 60.7036 19.318C60.7036 18.0673 60.9416 17.1153 61.4176 16.462C61.8936 15.8087 62.5982 15.482 63.5316 15.482C64.0076 15.482 64.4276 15.6127 64.7916 15.874C65.1649 16.1353 65.4029 16.4713 65.5056 16.882H65.5756V12.64H67.6476V23H65.5756V21.768ZM64.2176 21.488C64.6096 21.488 64.9316 21.3947 65.1836 21.208C65.4449 21.012 65.5756 20.746 65.5756 20.41V18.24C65.5756 17.904 65.4449 17.6427 65.1836 17.456C64.9316 17.26 64.6096 17.162 64.2176 17.162C63.8256 17.162 63.4989 17.302 63.2376 17.582C62.9856 17.8527 62.8596 18.2213 62.8596 18.688V19.962C62.8596 20.4287 62.9856 20.802 63.2376 21.082C63.4989 21.3527 63.8256 21.488 64.2176 21.488ZM75.9877 18.38L75.0497 16.42H75.0077V23H73.0057V13.228H75.3297L78.0037 17.848L78.9417 19.808H78.9837V13.228H80.9857V23H78.6617L75.9877 18.38ZM86.0906 23.168C85.5306 23.168 85.0313 23.0793 84.5926 22.902C84.1539 22.7153 83.7806 22.4587 83.4726 22.132C83.1739 21.796 82.9453 21.39 82.7866 20.914C82.6373 20.438 82.5626 19.906 82.5626 19.318C82.5626 18.7393 82.6373 18.2167 82.7866 17.75C82.9359 17.274 83.1553 16.868 83.4446 16.532C83.7433 16.196 84.1073 15.9393 84.5366 15.762C84.9659 15.5753 85.4559 15.482 86.0066 15.482C86.6133 15.482 87.1313 15.5847 87.5606 15.79C87.9993 15.9953 88.3539 16.2707 88.6246 16.616C88.9046 16.9613 89.1053 17.3627 89.2266 17.82C89.3573 18.268 89.4226 18.7393 89.4226 19.234V19.85H84.7046V19.962C84.7046 20.4473 84.8353 20.8347 85.0966 21.124C85.3579 21.404 85.7686 21.544 86.3286 21.544C86.7579 21.544 87.1079 21.46 87.3786 21.292C87.6493 21.1147 87.9013 20.9047 88.1346 20.662L89.1706 21.95C88.8439 22.3327 88.4146 22.6313 87.8826 22.846C87.3599 23.0607 86.7626 23.168 86.0906 23.168ZM86.0486 17.008C85.6286 17.008 85.2973 17.148 85.0546 17.428C84.8213 17.6987 84.7046 18.0627 84.7046 18.52V18.632H87.2806V18.506C87.2806 18.058 87.1779 17.6987 86.9726 17.428C86.7766 17.148 86.4686 17.008 86.0486 17.008ZM90.1176 15.65H92.1196L92.8336 18.618L93.3376 20.858H93.3936L93.9816 18.618L94.8216 15.65H96.7116L97.5656 18.618L98.1676 20.858H98.2236L98.7276 18.618L99.4416 15.65H101.36L99.3296 23H97.1596L96.2636 19.892L95.7456 17.988H95.7036L95.1996 19.892L94.3036 23H92.1756L90.1176 15.65ZM109.958 23.168C109.295 23.168 108.698 23.0653 108.166 22.86C107.634 22.6453 107.181 22.3327 106.808 21.922C106.434 21.502 106.145 20.984 105.94 20.368C105.734 19.7427 105.632 19.0147 105.632 18.184C105.632 17.3627 105.734 16.6347 105.94 16C106.145 15.356 106.434 14.8193 106.808 14.39C107.181 13.9513 107.634 13.62 108.166 13.396C108.698 13.172 109.295 13.06 109.958 13.06C110.863 13.06 111.61 13.2467 112.198 13.62C112.786 13.984 113.257 14.5627 113.612 15.356L111.778 16.308C111.647 15.8973 111.442 15.5707 111.162 15.328C110.891 15.076 110.49 14.95 109.958 14.95C109.332 14.95 108.828 15.1553 108.446 15.566C108.072 15.9673 107.886 16.5553 107.886 17.33V18.898C107.886 19.6727 108.072 20.2653 108.446 20.676C108.828 21.0773 109.332 21.278 109.958 21.278C110.48 21.278 110.896 21.138 111.204 20.858C111.521 20.5687 111.754 20.2233 111.904 19.822L113.64 20.83C113.276 21.5767 112.795 22.1553 112.198 22.566C111.61 22.9673 110.863 23.168 109.958 23.168ZM120.449 23C120.075 23 119.763 22.8833 119.511 22.65C119.268 22.4167 119.114 22.104 119.049 21.712H118.965C118.853 22.188 118.605 22.552 118.223 22.804C117.84 23.0467 117.369 23.168 116.809 23.168C116.071 23.168 115.507 22.972 115.115 22.58C114.723 22.188 114.527 21.67 114.527 21.026C114.527 20.2513 114.807 19.6773 115.367 19.304C115.936 18.9213 116.706 18.73 117.677 18.73H118.839V18.268C118.839 17.9133 118.745 17.6333 118.559 17.428C118.372 17.2133 118.059 17.106 117.621 17.106C117.21 17.106 116.883 17.1947 116.641 17.372C116.398 17.5493 116.197 17.75 116.039 17.974L114.807 16.882C115.105 16.4433 115.479 16.1027 115.927 15.86C116.384 15.608 117 15.482 117.775 15.482C118.82 15.482 119.604 15.7107 120.127 16.168C120.649 16.6253 120.911 17.2927 120.911 18.17V21.39H121.597V23H120.449ZM117.579 21.726C117.924 21.726 118.218 21.6513 118.461 21.502C118.713 21.3527 118.839 21.11 118.839 20.774V19.906H117.831C117.019 19.906 116.613 20.1813 116.613 20.732V20.942C116.613 21.2127 116.697 21.4133 116.865 21.544C117.033 21.6653 117.271 21.726 117.579 21.726ZM122.987 23V15.65H125.059V17.246H125.129C125.167 17.0407 125.232 16.8447 125.325 16.658C125.419 16.462 125.54 16.2893 125.689 16.14C125.848 15.9907 126.035 15.874 126.249 15.79C126.464 15.6967 126.716 15.65 127.005 15.65H127.369V17.582H126.851C126.245 17.582 125.792 17.6613 125.493 17.82C125.204 17.9787 125.059 18.2727 125.059 18.702V23H122.987Z" fill="white"/>
</svg>
