<svg width="69" height="36" viewBox="0 0 69 36" fill="none" xmlns="http://www.w3.org/2000/svg">
<rect x="0.5" y="0.5" width="68" height="35" rx="1.5" fill="white"/>
<path d="M17.026 23.168C16.3633 23.168 15.766 23.0653 15.234 22.86C14.702 22.6453 14.2493 22.3327 13.876 21.922C13.5027 21.502 13.2133 20.984 13.008 20.368C12.8027 19.7427 12.7 19.0147 12.7 18.184C12.7 17.3627 12.8027 16.6347 13.008 16C13.2133 15.356 13.5027 14.8193 13.876 14.39C14.2493 13.9513 14.702 13.62 15.234 13.396C15.766 13.172 16.3633 13.06 17.026 13.06C17.9313 13.06 18.678 13.2467 19.266 13.62C19.854 13.984 20.3253 14.5627 20.68 15.356L18.846 16.308C18.7153 15.8973 18.51 15.5707 18.23 15.328C17.9593 15.076 17.558 14.95 17.026 14.95C16.4007 14.95 15.8967 15.1553 15.514 15.566C15.1407 15.9673 14.954 16.5553 14.954 17.33V18.898C14.954 19.6727 15.1407 20.2653 15.514 20.676C15.8967 21.0773 16.4007 21.278 17.026 21.278C17.5487 21.278 17.964 21.138 18.272 20.858C18.5893 20.5687 18.8227 20.2233 18.972 19.822L20.708 20.83C20.344 21.5767 19.8633 22.1553 19.266 22.566C18.678 22.9673 17.9313 23.168 17.026 23.168ZM27.5171 23C27.1438 23 26.8311 22.8833 26.5791 22.65C26.3365 22.4167 26.1825 22.104 26.1171 21.712H26.0331C25.9211 22.188 25.6738 22.552 25.2911 22.804C24.9085 23.0467 24.4371 23.168 23.8771 23.168C23.1398 23.168 22.5751 22.972 22.1831 22.58C21.7911 22.188 21.5951 21.67 21.5951 21.026C21.5951 20.2513 21.8751 19.6773 22.4351 19.304C23.0045 18.9213 23.7745 18.73 24.7451 18.73H25.9071V18.268C25.9071 17.9133 25.8138 17.6333 25.6271 17.428C25.4405 17.2133 25.1278 17.106 24.6891 17.106C24.2785 17.106 23.9518 17.1947 23.7091 17.372C23.4665 17.5493 23.2658 17.75 23.1071 17.974L21.8751 16.882C22.1738 16.4433 22.5471 16.1027 22.9951 15.86C23.4525 15.608 24.0685 15.482 24.8431 15.482C25.8885 15.482 26.6725 15.7107 27.1951 16.168C27.7178 16.6253 27.9791 17.2927 27.9791 18.17V21.39H28.6651V23H27.5171ZM24.6471 21.726C24.9925 21.726 25.2865 21.6513 25.5291 21.502C25.7811 21.3527 25.9071 21.11 25.9071 20.774V19.906H24.8991C24.0871 19.906 23.6811 20.1813 23.6811 20.732V20.942C23.6811 21.2127 23.7651 21.4133 23.9331 21.544C24.1011 21.6653 24.3391 21.726 24.6471 21.726ZM30.0558 23V15.65H32.1278V16.896H32.2118C32.3425 16.5133 32.5712 16.182 32.8978 15.902C33.2245 15.622 33.6772 15.482 34.2558 15.482C35.0118 15.482 35.5812 15.734 35.9638 16.238C36.3558 16.742 36.5518 17.4607 36.5518 18.394V23H34.4798V18.562C34.4798 18.086 34.4052 17.736 34.2558 17.512C34.1065 17.2787 33.8405 17.162 33.4578 17.162C33.2898 17.162 33.1265 17.1853 32.9678 17.232C32.8092 17.2693 32.6645 17.3347 32.5338 17.428C32.4125 17.5213 32.3145 17.638 32.2398 17.778C32.1652 17.9087 32.1278 18.0627 32.1278 18.24V23H30.0558ZM41.3637 23.168C40.813 23.168 40.323 23.0793 39.8937 22.902C39.4644 22.7153 39.105 22.4587 38.8157 22.132C38.5264 21.796 38.307 21.39 38.1577 20.914C38.0084 20.438 37.9337 19.906 37.9337 19.318C37.9337 18.73 38.0084 18.2027 38.1577 17.736C38.307 17.26 38.5264 16.854 38.8157 16.518C39.105 16.182 39.4644 15.9253 39.8937 15.748C40.323 15.5707 40.813 15.482 41.3637 15.482C42.1104 15.482 42.731 15.65 43.2257 15.986C43.7297 16.322 44.089 16.7933 44.3037 17.4L42.6237 18.128C42.5584 17.848 42.423 17.61 42.2177 17.414C42.0124 17.218 41.7277 17.12 41.3637 17.12C40.9437 17.12 40.6264 17.26 40.4117 17.54C40.197 17.8107 40.0897 18.1793 40.0897 18.646V20.018C40.0897 20.4847 40.197 20.8533 40.4117 21.124C40.6264 21.3947 40.9437 21.53 41.3637 21.53C41.737 21.53 42.031 21.432 42.2457 21.236C42.4697 21.0307 42.633 20.7647 42.7357 20.438L44.3457 21.138C44.103 21.838 43.725 22.3513 43.2117 22.678C42.7077 23.0047 42.0917 23.168 41.3637 23.168ZM48.6258 23.168C48.0658 23.168 47.5664 23.0793 47.1278 22.902C46.6891 22.7153 46.3158 22.4587 46.0078 22.132C45.7091 21.796 45.4804 21.39 45.3218 20.914C45.1724 20.438 45.0978 19.906 45.0978 19.318C45.0978 18.7393 45.1724 18.2167 45.3218 17.75C45.4711 17.274 45.6904 16.868 45.9798 16.532C46.2784 16.196 46.6424 15.9393 47.0718 15.762C47.5011 15.5753 47.9911 15.482 48.5418 15.482C49.1484 15.482 49.6664 15.5847 50.0958 15.79C50.5344 15.9953 50.8891 16.2707 51.1598 16.616C51.4398 16.9613 51.6404 17.3627 51.7618 17.82C51.8924 18.268 51.9578 18.7393 51.9578 19.234V19.85H47.2398V19.962C47.2398 20.4473 47.3704 20.8347 47.6318 21.124C47.8931 21.404 48.3038 21.544 48.8638 21.544C49.2931 21.544 49.6431 21.46 49.9138 21.292C50.1844 21.1147 50.4364 20.9047 50.6698 20.662L51.7058 21.95C51.3791 22.3327 50.9498 22.6313 50.4178 22.846C49.8951 23.0607 49.2978 23.168 48.6258 23.168ZM48.5838 17.008C48.1638 17.008 47.8324 17.148 47.5898 17.428C47.3564 17.6987 47.2398 18.0627 47.2398 18.52V18.632H49.8158V18.506C49.8158 18.058 49.7131 17.6987 49.5078 17.428C49.3118 17.148 49.0038 17.008 48.5838 17.008ZM55.4791 23C54.7697 23 54.2471 22.8273 53.9111 22.482C53.5844 22.1367 53.4211 21.6373 53.4211 20.984V12.64H55.4931V21.39H56.4171V23H55.4791Z" fill="#0D28A6"/>
<rect x="0.5" y="0.5" width="68" height="35" rx="1.5" stroke="#0D28A6"/>
</svg>
