<svg width="62" height="36" viewBox="0 0 62 36" fill="none" xmlns="http://www.w3.org/2000/svg">
<rect x="0.5" y="0.5" width="61" height="35" rx="1.5" fill="#CFD4ED"/>
<path d="M16.242 23.168C15.3833 23.168 14.6553 23.0233 14.058 22.734C13.4607 22.4353 12.952 22.0527 12.532 21.586L13.932 20.172C14.5947 20.9187 15.4113 21.292 16.382 21.292C16.9047 21.292 17.292 21.1847 17.544 20.97C17.796 20.7553 17.922 20.4707 17.922 20.116C17.922 19.8453 17.8473 19.6213 17.698 19.444C17.5487 19.2573 17.2453 19.1313 16.788 19.066L15.822 18.94C14.786 18.8093 14.0253 18.4967 13.54 18.002C13.064 17.5073 12.826 16.8493 12.826 16.028C12.826 15.5893 12.91 15.188 13.078 14.824C13.246 14.46 13.484 14.1473 13.792 13.886C14.1093 13.6247 14.492 13.424 14.94 13.284C15.3973 13.1347 15.9153 13.06 16.494 13.06C17.2313 13.06 17.88 13.1767 18.44 13.41C19 13.6433 19.4807 13.984 19.882 14.432L18.468 15.86C18.2347 15.5893 17.95 15.37 17.614 15.202C17.2873 15.0247 16.872 14.936 16.368 14.936C15.892 14.936 15.5373 15.02 15.304 15.188C15.0707 15.356 14.954 15.5893 14.954 15.888C14.954 16.224 15.0427 16.4667 15.22 16.616C15.4067 16.7653 15.7053 16.8727 16.116 16.938L17.082 17.092C18.09 17.2507 18.8367 17.5633 19.322 18.03C19.8073 18.4873 20.05 19.1407 20.05 19.99C20.05 20.4567 19.966 20.886 19.798 21.278C19.63 21.67 19.3827 22.006 19.056 22.286C18.7387 22.566 18.342 22.7853 17.866 22.944C17.39 23.0933 16.8487 23.168 16.242 23.168ZM21.7023 23V15.65H23.7743V16.896H23.8583C23.989 16.504 24.213 16.1727 24.5303 15.902C24.8477 15.622 25.2817 15.482 25.8323 15.482C26.3363 15.482 26.7657 15.608 27.1203 15.86C27.475 16.112 27.7317 16.4807 27.8903 16.966H27.9323C27.9977 16.7607 28.0957 16.5693 28.2263 16.392C28.3663 16.2053 28.5343 16.0467 28.7303 15.916C28.9263 15.7853 29.1457 15.6827 29.3883 15.608C29.631 15.524 29.8923 15.482 30.1723 15.482C30.8817 15.482 31.423 15.734 31.7963 16.238C32.179 16.742 32.3703 17.4607 32.3703 18.394V23H30.2983V18.562C30.2983 17.6287 29.9623 17.162 29.2903 17.162C28.9823 17.162 28.7023 17.2507 28.4503 17.428C28.1983 17.6053 28.0723 17.876 28.0723 18.24V23H26.0003V18.562C26.0003 17.6287 25.6643 17.162 24.9923 17.162C24.843 17.162 24.6937 17.1853 24.5443 17.232C24.4043 17.2693 24.2737 17.3347 24.1523 17.428C24.0403 17.5213 23.947 17.638 23.8723 17.778C23.807 17.9087 23.7743 18.0627 23.7743 18.24V23H21.7023ZM39.6441 23C39.2708 23 38.9581 22.8833 38.7061 22.65C38.4634 22.4167 38.3094 22.104 38.2441 21.712H38.1601C38.0481 22.188 37.8008 22.552 37.4181 22.804C37.0354 23.0467 36.5641 23.168 36.0041 23.168C35.2668 23.168 34.7021 22.972 34.3101 22.58C33.9181 22.188 33.7221 21.67 33.7221 21.026C33.7221 20.2513 34.0021 19.6773 34.5621 19.304C35.1314 18.9213 35.9014 18.73 36.8721 18.73H38.0341V18.268C38.0341 17.9133 37.9408 17.6333 37.7541 17.428C37.5674 17.2133 37.2548 17.106 36.8161 17.106C36.4054 17.106 36.0788 17.1947 35.8361 17.372C35.5934 17.5493 35.3928 17.75 35.2341 17.974L34.0021 16.882C34.3008 16.4433 34.6741 16.1027 35.1221 15.86C35.5794 15.608 36.1954 15.482 36.9701 15.482C38.0154 15.482 38.7994 15.7107 39.3221 16.168C39.8448 16.6253 40.1061 17.2927 40.1061 18.17V21.39H40.7921V23H39.6441ZM36.7741 21.726C37.1194 21.726 37.4134 21.6513 37.6561 21.502C37.9081 21.3527 38.0341 21.11 38.0341 20.774V19.906H37.0261C36.2141 19.906 35.8081 20.1813 35.8081 20.732V20.942C35.8081 21.2127 35.8921 21.4133 36.0601 21.544C36.2281 21.6653 36.4661 21.726 36.7741 21.726ZM44.2408 23C43.5315 23 43.0088 22.8273 42.6728 22.482C42.3461 22.1367 42.1828 21.6373 42.1828 20.984V12.64H44.2548V21.39H45.1788V23H44.2408ZM48.3697 23C47.6604 23 47.1377 22.8273 46.8017 22.482C46.475 22.1367 46.3117 21.6373 46.3117 20.984V12.64H48.3837V21.39H49.3077V23H48.3697Z" fill="#0D28A6"/>
<rect x="0.5" y="0.5" width="61" height="35" rx="1.5" stroke="#0D28A6"/>
</svg>
