<svg width="42" height="36" viewBox="0 0 42 36" fill="none" xmlns="http://www.w3.org/2000/svg">
<rect x="0.5" y="0.5" width="41" height="35" rx="1.5" fill="#CFD4ED"/>
<path d="M19.098 23L18.398 20.676H15.136L14.436 23H12.28L15.5 13.228H18.132L21.31 23H19.098ZM16.788 15.16H16.718L15.64 18.87H17.88L16.788 15.16ZM24.608 23C23.8987 23 23.376 22.8273 23.04 22.482C22.7133 22.1367 22.55 21.6373 22.55 20.984V12.64H24.622V21.39H25.546V23H24.608ZM28.7369 23C28.0276 23 27.5049 22.8273 27.1689 22.482C26.8422 22.1367 26.6789 21.6373 26.6789 20.984V12.64H28.7509V21.39H29.6749V23H28.7369Z" fill="#0D28A6"/>
<rect x="0.5" y="0.5" width="41" height="35" rx="1.5" stroke="#0D28A6"/>
</svg>
