<svg width="61" height="36" viewBox="0 0 61 36" fill="none" xmlns="http://www.w3.org/2000/svg">
<rect x="0.5" y="0.5" width="60" height="35" rx="1.5" fill="#CFD4ED"/>
<path d="M13.078 23V13.228H15.206V21.11H18.93V23H13.078ZM25.8765 23C25.5032 23 25.1905 22.8833 24.9385 22.65C24.6958 22.4167 24.5418 22.104 24.4765 21.712H24.3925C24.2805 22.188 24.0332 22.552 23.6505 22.804C23.2678 23.0467 22.7965 23.168 22.2365 23.168C21.4992 23.168 20.9345 22.972 20.5425 22.58C20.1505 22.188 19.9545 21.67 19.9545 21.026C19.9545 20.2513 20.2345 19.6773 20.7945 19.304C21.3638 18.9213 22.1338 18.73 23.1045 18.73H24.2665V18.268C24.2665 17.9133 24.1732 17.6333 23.9865 17.428C23.7998 17.2133 23.4872 17.106 23.0485 17.106C22.6378 17.106 22.3112 17.1947 22.0685 17.372C21.8258 17.5493 21.6252 17.75 21.4665 17.974L20.2345 16.882C20.5332 16.4433 20.9065 16.1027 21.3545 15.86C21.8118 15.608 22.4278 15.482 23.2025 15.482C24.2478 15.482 25.0318 15.7107 25.5545 16.168C26.0772 16.6253 26.3385 17.2927 26.3385 18.17V21.39H27.0245V23H25.8765ZM23.0065 21.726C23.3518 21.726 23.6458 21.6513 23.8885 21.502C24.1405 21.3527 24.2665 21.11 24.2665 20.774V19.906H23.2585C22.4465 19.906 22.0405 20.1813 22.0405 20.732V20.942C22.0405 21.2127 22.1245 21.4133 22.2925 21.544C22.4605 21.6653 22.6985 21.726 23.0065 21.726ZM28.4152 23V15.65H30.4872V17.246H30.5572C30.5946 17.0407 30.6599 16.8447 30.7532 16.658C30.8466 16.462 30.9679 16.2893 31.1172 16.14C31.2759 15.9907 31.4626 15.874 31.6772 15.79C31.8919 15.6967 32.1439 15.65 32.4332 15.65H32.7972V17.582H32.2792C31.6726 17.582 31.2199 17.6613 30.9212 17.82C30.6319 17.9787 30.4872 18.2727 30.4872 18.702V23H28.4152ZM40.688 23.532C40.688 23.924 40.618 24.2693 40.478 24.568C40.3473 24.8667 40.128 25.1187 39.82 25.324C39.512 25.5387 39.1013 25.6973 38.588 25.8C38.084 25.912 37.4586 25.968 36.712 25.968C36.0773 25.968 35.536 25.926 35.088 25.842C34.6493 25.7673 34.29 25.6553 34.01 25.506C33.7393 25.366 33.5386 25.1887 33.408 24.974C33.2866 24.7687 33.226 24.5307 33.226 24.26C33.226 23.8493 33.3473 23.5273 33.59 23.294C33.8326 23.0607 34.1686 22.916 34.598 22.86V22.706C34.2433 22.6407 33.9773 22.4913 33.8 22.258C33.6226 22.0153 33.534 21.7353 33.534 21.418C33.534 21.222 33.5713 21.054 33.646 20.914C33.73 20.7647 33.8326 20.6387 33.954 20.536C34.0846 20.424 34.234 20.3353 34.402 20.27C34.57 20.2047 34.738 20.1533 34.906 20.116V20.06C34.458 19.8547 34.1266 19.5747 33.912 19.22C33.6973 18.856 33.59 18.436 33.59 17.96C33.59 17.2133 33.8466 16.616 34.36 16.168C34.8826 15.7107 35.676 15.482 36.74 15.482C37.2253 15.482 37.6406 15.5287 37.986 15.622V15.342C37.986 14.95 38.0793 14.67 38.266 14.502C38.462 14.3247 38.7373 14.236 39.092 14.236H40.254V15.776H38.63V15.86C39.0593 16.0653 39.3766 16.35 39.582 16.714C39.7873 17.0687 39.89 17.484 39.89 17.96C39.89 18.6973 39.6286 19.29 39.106 19.738C38.5926 20.1767 37.804 20.396 36.74 20.396C36.264 20.396 35.83 20.3447 35.438 20.242C35.2233 20.382 35.116 20.578 35.116 20.83C35.116 21.0073 35.1813 21.1473 35.312 21.25C35.452 21.3433 35.6806 21.39 35.998 21.39H38.126C39.022 21.39 39.6706 21.5767 40.072 21.95C40.4826 22.3233 40.688 22.8507 40.688 23.532ZM38.742 23.812C38.742 23.5973 38.658 23.434 38.49 23.322C38.322 23.21 38.028 23.154 37.608 23.154H35.088C34.9946 23.2473 34.9246 23.35 34.878 23.462C34.8406 23.5833 34.822 23.7 34.822 23.812C34.822 24.0827 34.9386 24.2787 35.172 24.4C35.4053 24.5307 35.802 24.596 36.362 24.596H37.202C37.762 24.596 38.1586 24.5307 38.392 24.4C38.6253 24.2787 38.742 24.0827 38.742 23.812ZM36.74 19.038C37.1506 19.038 37.454 18.954 37.65 18.786C37.8553 18.6087 37.958 18.3567 37.958 18.03V17.862C37.958 17.5353 37.8553 17.288 37.65 17.12C37.454 16.9427 37.1506 16.854 36.74 16.854C36.3293 16.854 36.0213 16.9427 35.816 17.12C35.62 17.288 35.522 17.5353 35.522 17.862V18.03C35.522 18.3567 35.62 18.6087 35.816 18.786C36.0213 18.954 36.3293 19.038 36.74 19.038ZM44.5925 23.168C44.0325 23.168 43.5332 23.0793 43.0945 22.902C42.6559 22.7153 42.2825 22.4587 41.9745 22.132C41.6759 21.796 41.4472 21.39 41.2885 20.914C41.1392 20.438 41.0645 19.906 41.0645 19.318C41.0645 18.7393 41.1392 18.2167 41.2885 17.75C41.4379 17.274 41.6572 16.868 41.9465 16.532C42.2452 16.196 42.6092 15.9393 43.0385 15.762C43.4679 15.5753 43.9579 15.482 44.5085 15.482C45.1152 15.482 45.6332 15.5847 46.0625 15.79C46.5012 15.9953 46.8559 16.2707 47.1265 16.616C47.4065 16.9613 47.6072 17.3627 47.7285 17.82C47.8592 18.268 47.9245 18.7393 47.9245 19.234V19.85H43.2065V19.962C43.2065 20.4473 43.3372 20.8347 43.5985 21.124C43.8599 21.404 44.2705 21.544 44.8305 21.544C45.2599 21.544 45.6099 21.46 45.8805 21.292C46.1512 21.1147 46.4032 20.9047 46.6365 20.662L47.6725 21.95C47.3459 22.3327 46.9165 22.6313 46.3845 22.846C45.8619 23.0607 45.2645 23.168 44.5925 23.168ZM44.5505 17.008C44.1305 17.008 43.7992 17.148 43.5565 17.428C43.3232 17.6987 43.2065 18.0627 43.2065 18.52V18.632H45.7825V18.506C45.7825 18.058 45.6799 17.6987 45.4745 17.428C45.2785 17.148 44.9705 17.008 44.5505 17.008Z" fill="#0D28A6"/>
<rect x="0.5" y="0.5" width="60" height="35" rx="1.5" stroke="#0D28A6"/>
</svg>
