<svg width="56" height="36" viewBox="0 0 56 36" fill="none" xmlns="http://www.w3.org/2000/svg">
<rect width="56" height="36" rx="2" fill="#0D28A6"/>
<path d="M16.242 23.168C15.3833 23.168 14.6553 23.0233 14.058 22.734C13.4607 22.4353 12.952 22.0527 12.532 21.586L13.932 20.172C14.5947 20.9187 15.4113 21.292 16.382 21.292C16.9047 21.292 17.292 21.1847 17.544 20.97C17.796 20.7553 17.922 20.4707 17.922 20.116C17.922 19.8453 17.8473 19.6213 17.698 19.444C17.5487 19.2573 17.2453 19.1313 16.788 19.066L15.822 18.94C14.786 18.8093 14.0253 18.4967 13.54 18.002C13.064 17.5073 12.826 16.8493 12.826 16.028C12.826 15.5893 12.91 15.188 13.078 14.824C13.246 14.46 13.484 14.1473 13.792 13.886C14.1093 13.6247 14.492 13.424 14.94 13.284C15.3973 13.1347 15.9153 13.06 16.494 13.06C17.2313 13.06 17.88 13.1767 18.44 13.41C19 13.6433 19.4807 13.984 19.882 14.432L18.468 15.86C18.2347 15.5893 17.95 15.37 17.614 15.202C17.2873 15.0247 16.872 14.936 16.368 14.936C15.892 14.936 15.5373 15.02 15.304 15.188C15.0707 15.356 14.954 15.5893 14.954 15.888C14.954 16.224 15.0427 16.4667 15.22 16.616C15.4067 16.7653 15.7053 16.8727 16.116 16.938L17.082 17.092C18.09 17.2507 18.8367 17.5633 19.322 18.03C19.8073 18.4873 20.05 19.1407 20.05 19.99C20.05 20.4567 19.966 20.886 19.798 21.278C19.63 21.67 19.3827 22.006 19.056 22.286C18.7387 22.566 18.342 22.7853 17.866 22.944C17.39 23.0933 16.8487 23.168 16.242 23.168ZM27.1343 23C26.761 23 26.4483 22.8833 26.1963 22.65C25.9537 22.4167 25.7997 22.104 25.7343 21.712H25.6503C25.5383 22.188 25.291 22.552 24.9083 22.804C24.5257 23.0467 24.0543 23.168 23.4943 23.168C22.757 23.168 22.1923 22.972 21.8003 22.58C21.4083 22.188 21.2123 21.67 21.2123 21.026C21.2123 20.2513 21.4923 19.6773 22.0523 19.304C22.6217 18.9213 23.3917 18.73 24.3623 18.73H25.5243V18.268C25.5243 17.9133 25.431 17.6333 25.2443 17.428C25.0577 17.2133 24.745 17.106 24.3063 17.106C23.8957 17.106 23.569 17.1947 23.3263 17.372C23.0837 17.5493 22.883 17.75 22.7243 17.974L21.4923 16.882C21.791 16.4433 22.1643 16.1027 22.6123 15.86C23.0697 15.608 23.6857 15.482 24.4603 15.482C25.5057 15.482 26.2897 15.7107 26.8123 16.168C27.335 16.6253 27.5963 17.2927 27.5963 18.17V21.39H28.2823V23H27.1343ZM24.2643 21.726C24.6097 21.726 24.9037 21.6513 25.1463 21.502C25.3983 21.3527 25.5243 21.11 25.5243 20.774V19.906H24.5163C23.7043 19.906 23.2983 20.1813 23.2983 20.732V20.942C23.2983 21.2127 23.3823 21.4133 23.5503 21.544C23.7183 21.6653 23.9563 21.726 24.2643 21.726ZM31.1043 23L28.6963 15.65H30.7403L31.6503 18.618L32.3363 21.278H32.4483L33.1343 18.618L34.0163 15.65H35.9763L33.5683 23H31.1043ZM40.0261 23.168C39.4661 23.168 38.9668 23.0793 38.5281 22.902C38.0895 22.7153 37.7161 22.4587 37.4081 22.132C37.1095 21.796 36.8808 21.39 36.7221 20.914C36.5728 20.438 36.4981 19.906 36.4981 19.318C36.4981 18.7393 36.5728 18.2167 36.7221 17.75C36.8715 17.274 37.0908 16.868 37.3801 16.532C37.6788 16.196 38.0428 15.9393 38.4721 15.762C38.9015 15.5753 39.3915 15.482 39.9421 15.482C40.5488 15.482 41.0668 15.5847 41.4961 15.79C41.9348 15.9953 42.2895 16.2707 42.5601 16.616C42.8401 16.9613 43.0408 17.3627 43.1621 17.82C43.2928 18.268 43.3581 18.7393 43.3581 19.234V19.85H38.6401V19.962C38.6401 20.4473 38.7708 20.8347 39.0321 21.124C39.2935 21.404 39.7041 21.544 40.2641 21.544C40.6935 21.544 41.0435 21.46 41.3141 21.292C41.5848 21.1147 41.8368 20.9047 42.0701 20.662L43.1061 21.95C42.7795 22.3327 42.3501 22.6313 41.8181 22.846C41.2955 23.0607 40.6981 23.168 40.0261 23.168ZM39.9841 17.008C39.5641 17.008 39.2328 17.148 38.9901 17.428C38.7568 17.6987 38.6401 18.0627 38.6401 18.52V18.632H41.2161V18.506C41.2161 18.058 41.1135 17.6987 40.9081 17.428C40.7121 17.148 40.4041 17.008 39.9841 17.008Z" fill="white"/>
</svg>
