<svg width="144" height="48" viewBox="0 0 144 48" fill="none" xmlns="http://www.w3.org/2000/svg">
<rect x="0.5" y="0.5" width="142.5" height="47" rx="1.5" fill="white"/>
<path d="M38.5 19.5H40H52" stroke="#FA2C5A" stroke-width="2" stroke-linecap="round" stroke-linejoin="round"/>
<path d="M42.25 19.5V18C42.25 17.6022 42.408 17.2206 42.6893 16.9393C42.9706 16.658 43.3522 16.5 43.75 16.5H46.75C47.1478 16.5 47.5294 16.658 47.8107 16.9393C48.092 17.2206 48.25 17.6022 48.25 18V19.5M50.5 19.5V30C50.5 30.3978 50.342 30.7794 50.0607 31.0607C49.7794 31.342 49.3978 31.5 49 31.5H41.5C41.1022 31.5 40.7206 31.342 40.4393 31.0607C40.158 30.7794 40 30.3978 40 30V19.5H50.5Z" stroke="#FA2C5A" stroke-width="2" stroke-linecap="round" stroke-linejoin="round"/>
<path d="M46.75 23.25V27.75" stroke="white" stroke-width="2" stroke-linecap="round" stroke-linejoin="round"/>
<path d="M43.75 23.25V27.75" stroke="white" stroke-width="2" stroke-linecap="round" stroke-linejoin="round"/>
<path d="M65.328 19.228H69.01C69.654 19.228 70.242 19.3307 70.774 19.536C71.306 19.7413 71.7587 20.0493 72.132 20.46C72.5053 20.8613 72.7947 21.37 73 21.986C73.2053 22.5927 73.308 23.302 73.308 24.114C73.308 24.926 73.2053 25.64 73 26.256C72.7947 26.8627 72.5053 27.3713 72.132 27.782C71.7587 28.1833 71.306 28.4867 70.774 28.692C70.242 28.8973 69.654 29 69.01 29H65.328V19.228ZM69.01 27.11C69.6447 27.11 70.144 26.9327 70.508 26.578C70.872 26.2233 71.054 25.654 71.054 24.87V23.358C71.054 22.574 70.872 22.0047 70.508 21.65C70.144 21.2953 69.6447 21.118 69.01 21.118H67.456V27.11H69.01ZM78.0437 29.168C77.4837 29.168 76.9844 29.0793 76.5457 28.902C76.1071 28.7153 75.7337 28.4587 75.4257 28.132C75.1271 27.796 74.8984 27.39 74.7397 26.914C74.5904 26.438 74.5157 25.906 74.5157 25.318C74.5157 24.7393 74.5904 24.2167 74.7397 23.75C74.8891 23.274 75.1084 22.868 75.3977 22.532C75.6964 22.196 76.0604 21.9393 76.4897 21.762C76.9191 21.5753 77.4091 21.482 77.9597 21.482C78.5664 21.482 79.0844 21.5847 79.5137 21.79C79.9524 21.9953 80.3071 22.2707 80.5777 22.616C80.8577 22.9613 81.0584 23.3627 81.1797 23.82C81.3104 24.268 81.3757 24.7393 81.3757 25.234V25.85H76.6577V25.962C76.6577 26.4473 76.7884 26.8347 77.0497 27.124C77.3111 27.404 77.7217 27.544 78.2817 27.544C78.7111 27.544 79.0611 27.46 79.3317 27.292C79.6024 27.1147 79.8544 26.9047 80.0877 26.662L81.1237 27.95C80.7971 28.3327 80.3677 28.6313 79.8357 28.846C79.3131 29.0607 78.7157 29.168 78.0437 29.168ZM78.0017 23.008C77.5817 23.008 77.2504 23.148 77.0077 23.428C76.7744 23.6987 76.6577 24.0627 76.6577 24.52V24.632H79.2337V24.506C79.2337 24.058 79.1311 23.6987 78.9257 23.428C78.7297 23.148 78.4217 23.008 78.0017 23.008ZM84.897 29C84.1877 29 83.665 28.8273 83.329 28.482C83.0024 28.1367 82.839 27.6373 82.839 26.984V18.64H84.911V27.39H85.835V29H84.897ZM90.1433 29.168C89.5833 29.168 89.084 29.0793 88.6453 28.902C88.2067 28.7153 87.8333 28.4587 87.5253 28.132C87.2267 27.796 86.998 27.39 86.8393 26.914C86.69 26.438 86.6153 25.906 86.6153 25.318C86.6153 24.7393 86.69 24.2167 86.8393 23.75C86.9887 23.274 87.208 22.868 87.4973 22.532C87.796 22.196 88.16 21.9393 88.5893 21.762C89.0187 21.5753 89.5087 21.482 90.0593 21.482C90.666 21.482 91.184 21.5847 91.6133 21.79C92.052 21.9953 92.4067 22.2707 92.6773 22.616C92.9573 22.9613 93.158 23.3627 93.2793 23.82C93.41 24.268 93.4753 24.7393 93.4753 25.234V25.85H88.7573V25.962C88.7573 26.4473 88.888 26.8347 89.1493 27.124C89.4107 27.404 89.8213 27.544 90.3813 27.544C90.8107 27.544 91.1607 27.46 91.4313 27.292C91.702 27.1147 91.954 26.9047 92.1873 26.662L93.2233 27.95C92.8967 28.3327 92.4673 28.6313 91.9353 28.846C91.4127 29.0607 90.8153 29.168 90.1433 29.168ZM90.1013 23.008C89.6813 23.008 89.35 23.148 89.1073 23.428C88.874 23.6987 88.7573 24.0627 88.7573 24.52V24.632H91.3333V24.506C91.3333 24.058 91.2307 23.6987 91.0253 23.428C90.8293 23.148 90.5213 23.008 90.1013 23.008ZM97.5147 29C96.796 29 96.25 28.818 95.8767 28.454C95.5127 28.09 95.3307 27.558 95.3307 26.858V23.26H94.2947V21.65H94.8127C95.0927 21.65 95.284 21.5847 95.3867 21.454C95.4893 21.314 95.5407 21.118 95.5407 20.866V19.662H97.4027V21.65H98.8587V23.26H97.4027V27.39H98.7467V29H97.5147ZM103.309 29.168C102.749 29.168 102.25 29.0793 101.811 28.902C101.373 28.7153 100.999 28.4587 100.691 28.132C100.393 27.796 100.164 27.39 100.005 26.914C99.856 26.438 99.7813 25.906 99.7813 25.318C99.7813 24.7393 99.856 24.2167 100.005 23.75C100.155 23.274 100.374 22.868 100.663 22.532C100.962 22.196 101.326 21.9393 101.755 21.762C102.185 21.5753 102.675 21.482 103.225 21.482C103.832 21.482 104.35 21.5847 104.779 21.79C105.218 21.9953 105.573 22.2707 105.843 22.616C106.123 22.9613 106.324 23.3627 106.445 23.82C106.576 24.268 106.641 24.7393 106.641 25.234V25.85H101.923V25.962C101.923 26.4473 102.054 26.8347 102.315 27.124C102.577 27.404 102.987 27.544 103.547 27.544C103.977 27.544 104.327 27.46 104.597 27.292C104.868 27.1147 105.12 26.9047 105.353 26.662L106.389 27.95C106.063 28.3327 105.633 28.6313 105.101 28.846C104.579 29.0607 103.981 29.168 103.309 29.168ZM103.267 23.008C102.847 23.008 102.516 23.148 102.273 23.428C102.04 23.6987 101.923 24.0627 101.923 24.52V24.632H104.499V24.506C104.499 24.058 104.397 23.6987 104.191 23.428C103.995 23.148 103.687 23.008 103.267 23.008Z" fill="#FA2C5A"/>
<rect x="0.5" y="0.5" width="142.5" height="47" rx="1.5" stroke="#FA2C5A"/>
</svg>
